# xmcd
#
# Track frame offsets:
#	150
#	14850
#	27035
#	37392
#	49222
#	66017
#	80042
#	93900
#	106825
#	120145
#	133722
#	147667
#	159940
#	173217
#
# Disc length: 2438 seconds
#
# Revision: 1
# Processed by: cddbd v1.5.2PL0 Copyright (c) Steve Scherf et al.
# Submitted via: audiograbber 1.83.01
#
DISCID=be09840e
DTITLE=Big Tom and The Mainliners - The Sweetest Gift
DYEAR=1995
DGENRE=
TTITLE0=The Sweetest Gift A Mother's Smile
TTITLE1=Where The Grass Grows The Greenest
TTITLE2=Aint That A Shame
TTITLE3=Here I Am
TTITLE4=Crocodile Shoes
TTITLE5=The Beauty Of Limerick
TTITLE6=Games People Play
TTITLE7=The Girl I Love Now Lives In Birmingham
TTITLE8=Where The River Shannon Flows
TTITLE9=Have I Stayed Away Too Long
TTITLE10=Let The Four Winds Blow
TTITLE11=Careless Hands
TTITLE12=Tragic Romance
TTITLE13=Hornpipes
EXTD=
EXTT0=
EXTT1=
EXTT2=
EXTT3=
EXTT4=
EXTT5=
EXTT6=
EXTT7=
EXTT8=
EXTT9=
EXTT10=
EXTT11=
EXTT12=
EXTT13=
PLAYORDER=
